<?xml version="1.0" encoding="UTF-8"?>
<svg id="Layer_1" data-name="Layer 1" xmlns="http://www.w3.org/2000/svg" viewBox="0 0 75.65 74.86">
  <defs>
    <style>
      .cls-1 {
        fill: #fff;
      }
    </style>
  </defs>
  <path class="cls-1" d="M75.65,70.7v-.89h-5.9l-.31-.66h4.37v-1.87h-4.83v.88l-.7-1.5h.7v-1.87h-1.57l-.81-1.74h1.23v-.89h-1.65l-.31-.66h1.27v-1.87h-2.14l-.81-1.74h1.81v-.89h-2.22l-.48-1.02-.51-1.1h2.67v-1.87h-1.44v-2.28h-3.16l-.63-1.34h2.1v-1.87h-2.97l-.81-1.74h2.63v-.89h-3.05l-.31-.66h2.67v-1.87h-3.54l-.81-1.74h3.21v-.89h-3.62l-.99-2.13h4.07v-1.87h-1.44v-2.28h-4.56l-.39-.83h1.42v-1.87h-2.3l-.81-1.74h1.96v-.89h-2.37l-.31-.66h2v-1.87h-2.87l-.81-1.74h2.53v-.89h-2.95l-.99-2.13h3.39v-1.87h-1.44v-2.28h-3.88l-.31-.66h3v-1.87h-3.88l-.81-1.74h3.54v-.89h-3.96l-.31-.66h3.58v-1.87h-4.45l-.81-1.74h4.11v-.89h-4.53l-.99-2.13h1.01v-1.3h2.52V0h-7.35V.12L0,74.86H11.42v-1.87h-2.19l.83-1.74h5.04v-.89h-4.62l.31-.66h2.47v-1.87h-1.58l.83-1.74h4.43v-.89h-4.01l1.01-2.13h1.02v-1.3h3.96v-2.85h-3.02l.63-1.34h1.55v-1.87h-.67l.83-1.74h3.52v-.89h-3.09l.31-.66h.94v-1.87h-.06l.14-.29H52.26l11.77,24.63h8.08l-.25-.54h.12v-1.87h-.99l-.81-1.74h5.48ZM25.59,43v-1.4h-1.5l.39-.83h2.11v-1.87h-1.22l.83-1.74h4.07v-.89h-3.65l.31-.66h1.5v-1.87h-.61l.83-1.74h3.46v-.89h-3.04l1.01-2.13h.06v-.13l.55-1.17h3.41v-2.85h-2.06l.31-.66h.41v-.87l1.3-2.75h2.38v-.89h-1.95l1.77-3.74,12.77,27.1H25.59Z"/>
</svg>